<?xml version="1.0" encoding="UTF-8" standalone="no"?>
<svg
   xmlns:dc="http://purl.org/dc/elements/1.1/"
   xmlns:cc="http://creativecommons.org/ns#"
   xmlns:rdf="http://www.w3.org/1999/02/22-rdf-syntax-ns#"
   xmlns:svg="http://www.w3.org/2000/svg"
   xmlns="http://www.w3.org/2000/svg"
   xmlns:sodipodi="http://sodipodi.sourceforge.net/DTD/sodipodi-0.dtd"
   xmlns:inkscape="http://www.inkscape.org/namespaces/inkscape"
   width="45.559437mm"
   height="51.001617mm"
   viewBox="0 0 45.559437 51.001617"
   version="1.1"
   id="svg1176"
   inkscape:version="1.0.2 (394de47547, 2021-03-26)"
   sodipodi:docname="title.svg">
  <defs
     id="defs1170" />
  <sodipodi:namedview
     id="base"
     pagecolor="#ffffff"
     bordercolor="#666666"
     borderopacity="1.0"
     inkscape:pageopacity="0.0"
     inkscape:pageshadow="2"
     inkscape:zoom="1.979899"
     inkscape:cx="25.832318"
     inkscape:cy="-21.367465"
     inkscape:document-units="mm"
     inkscape:current-layer="layer1"
     inkscape:document-rotation="0"
     showgrid="false"
     inkscape:window-width="1515"
     inkscape:window-height="1199"
     inkscape:window-x="2030"
     inkscape:window-y="65"
     inkscape:window-maximized="0"
     inkscape:snap-global="false" />
  <metadata
     id="metadata1173">
    <rdf:RDF>
      <cc:Work
         rdf:about="">
        <dc:format>image/svg+xml</dc:format>
        <dc:type
           rdf:resource="http://purl.org/dc/dcmitype/StillImage" />
        <dc:title></dc:title>
      </cc:Work>
    </rdf:RDF>
  </metadata>
  <g
     inkscape:label="Layer 1"
     inkscape:groupmode="layer"
     id="layer1"
     transform="translate(-56.595282,-129.46943)">
    <g
       id="g2020"
       transform="translate(43.153771,45.133787)">
      <path
         id="path4868-2-7-1-1-6-2-9"
         style="fill:none;stroke:#000000;stroke-width:0.342902;stroke-linecap:butt;stroke-linejoin:round;stroke-miterlimit:4;stroke-dasharray:none;stroke-opacity:1"
         d="m 45.73729,111.8385 c 3.883984,6.16891 7.767967,12.33782 11.651943,18.50674 0.03964,-2.66625 1.933397,-5.72082 -0.0966,-8.08734 -3.059111,-4.70615 -6.118228,-9.4123 -9.177345,-14.11845 -0.792672,1.23301 -1.585337,2.46603 -2.378001,3.69905 z" />
      <path
         id="path4870-6-5-2-5-1-8-4"
         style="fill:none;stroke:#000000;stroke-width:0.342902;stroke-linecap:butt;stroke-linejoin:round;stroke-miterlimit:4;stroke-dasharray:none;stroke-opacity:1"
         d="m 45.367865,112.06631 c -1.559438,0.7021 -4.486831,3.17962 -5.192411,2.77222 1.126166,-2.12872 2.365731,-4.39477 4.844958,-5.11695 0.977177,-0.58879 3.941021,-2.31529 2.095831,-0.20726 -0.582793,0.85067 -1.165588,1.70133 -1.748378,2.55199 z" />
      <path
         id="path4876-7-9-9-5-8-9-7"
         style="fill:none;stroke:#000000;stroke-width:0.32406;stroke-linecap:butt;stroke-linejoin:round;stroke-miterlimit:4;stroke-dasharray:none;stroke-opacity:1"
         d="m 22.299945,116.0559 c 2.161675,-1.59442 4.219281,-4.43955 7.273015,-2.96371 4.471838,0.78236 8.943673,1.56473 13.41551,2.3471 -0.853119,1.24858 -1.706238,2.49716 -2.559357,3.74574 -6.043055,-1.04305 -12.086111,-2.08609 -18.129168,-3.12913 z" />
      <path
         id="path4878-9-2-3-4-7-7-8"
         style="fill:none;stroke:#000000;stroke-width:0.32406;stroke-linecap:butt;stroke-linejoin:round;stroke-miterlimit:4;stroke-dasharray:none;stroke-opacity:1"
         d="m 22.804361,122.71883 c -0.605968,0.54588 -1.211937,1.09176 -1.817905,1.63764 6.298369,1.31156 12.596737,2.62313 18.895104,3.9347 0.655656,-1.37354 1.311312,-2.74708 1.966968,-4.12062 -6.348055,-0.48391 -12.696111,-0.96782 -19.044167,-1.45172 z" />
      <path
         id="path4880-2-2-1-7-9-3-4"
         style="fill:#ececec;fill-opacity:1;stroke:#000000;stroke-width:0.32406;stroke-linecap:butt;stroke-linejoin:round;stroke-miterlimit:4;stroke-dasharray:none;stroke-opacity:1"
         d="m 21.009201,124.3751 c 0.103582,2.03831 0.207165,4.07663 0.310747,6.11494 6.108729,1.3116 12.21746,2.62319 18.326189,3.93479 -0.52649,-2.04141 1.628659,-5.92628 -1.22055,-6.60749 -5.805461,-1.14742 -11.610923,-2.29483 -17.416386,-3.44224 z" />
      <path
         id="path4882-0-8-9-6-2-6-5"
         style="fill:#c8c8c8;fill-opacity:1;stroke:#000000;stroke-width:0.32406;stroke-linecap:butt;stroke-linejoin:round;stroke-miterlimit:4;stroke-dasharray:none;stroke-opacity:1"
         d="m 43.039349,122.60797 c 0.07081,2.47518 1.013051,5.26355 -0.905445,7.33025 -0.610287,0.86111 -1.843801,4.04292 -2.280747,3.27547 0.03967,-2.66104 -0.371134,-5.59602 1.499899,-7.79199 0.562097,-0.93791 1.124196,-1.87582 1.686293,-2.81373 z" />
      <path
         id="path4874-8-9-4-5-0-1-0"
         style="fill:#ececec;fill-opacity:1;stroke:#000000;stroke-width:0.32406;stroke-linecap:butt;stroke-linejoin:round;stroke-miterlimit:4;stroke-dasharray:none;stroke-opacity:1"
         d="m 22.309934,116.09639 c 6.022344,1.1005 12.044688,2.201 18.067032,3.3015 0.125879,2.20113 0.251759,4.40226 0.377638,6.60339 -5.964987,-1.09959 -11.929977,-2.19917 -17.894966,-3.29875 -0.183235,-2.20205 -0.366469,-4.40409 -0.549704,-6.60614 z" />
      <path
         id="path4926-7-7-6-2-2-3"
         style="fill:#c8c8c8;fill-opacity:1;stroke:#000000;stroke-width:0.32406;stroke-linecap:butt;stroke-linejoin:round;stroke-miterlimit:4;stroke-dasharray:none;stroke-opacity:1"
         d="m 41.396969,118.1813 c -2.000708,1.90098 -0.304383,4.82229 -0.795583,7.18809 0.753374,1.07179 1.782061,-2.32973 2.600896,-2.91381 1.179524,-1.25494 -1.267365,-3.01207 -1.805313,-4.27428 z" />
      <path
         id="path4872-1-3-8-9-3-9-6"
         style="fill:#ececec;fill-opacity:1;stroke:#000000;stroke-width:0.342902;stroke-linecap:butt;stroke-linejoin:round;stroke-miterlimit:4;stroke-dasharray:none;stroke-opacity:1"
         d="m 39.803585,115.54962 c 3.906717,5.95683 7.813425,11.91367 11.720142,17.8705 1.408755,-1.45879 5.541015,-1.9568 5.08832,-4.18463 -3.657491,-5.77802 -7.314977,-11.55604 -10.972471,-17.33405 -1.94533,1.21606 -3.890661,2.43212 -5.835991,3.64818 z" />
      <path
         id="path4943-3-6-4-3-7-3-1"
         style="fill:#d6d6d6;fill-opacity:1;stroke:#000000;stroke-width:0.383247;stroke-miterlimit:4;stroke-dasharray:none;stroke-opacity:1"
         d="m 31.444871,115.47676 c -0.641586,-3.96808 -1.282721,-7.93627 -1.897912,-11.90854 -2.13223,0.32675 -5.758022,-3.04411 -6.830713,-0.40652 -0.824949,2.69388 -4.765296,3.69058 -6.589033,1.40916 -2.256743,-1.96254 -0.759733,-6.403182 2.325492,-6.290172 3.033418,0.0234 5.440275,2.560602 8.523219,2.344672 2.567177,0.69169 3.243954,-1.843782 2.796048,-3.838552 -0.22498,-2.72615 -2.192457,-5.04366 -2.133027,-7.801131 0.317654,-2.945747 4.254823,-4.234546 6.266314,-2.09458 1.913767,1.679944 1.67654,5.389441 -0.839028,6.370371 -3.130349,0.15327 -1.031591,3.71131 -0.618901,5.46785 0.02186,3.213232 3.926169,1.842462 5.839944,2.842682 3.062065,0.68461 6.492235,0.63075 9.113577,2.56483 1.529315,1.11772 0.821813,3.60719 -1.194957,2.21955 -4.318195,-0.71229 -8.632659,-1.44692 -12.949311,-2.16844 0.492361,3.79312 0.793801,7.64394 1.927021,11.31717 -0.591345,1.27559 -3.002768,0.91482 -3.738733,-0.0284 z M 20.96421,103.01009 c 1.832406,-2.98707 -4.46588,-4.644082 -4.341947,-1.07782 0.126363,2.17314 3.252293,3.13853 4.341947,1.07782 z M 33.28872,90.794005 c 1.770212,-2.930233 -4.19685,-4.871489 -4.092565,-1.213589 -0.24544,2.272972 3.146669,3.555552 4.092565,1.213589 z" />
      <path
         id="path4943-3-6-4-3-7-2-1-0"
         style="fill:#ffffff;fill-opacity:1;stroke:#000000;stroke-width:0.372977;stroke-miterlimit:4;stroke-dasharray:none;stroke-opacity:1"
         d="m 31.601445,115.40422 c -0.624347,-3.86175 -1.248546,-7.72357 -1.847024,-11.58944 -2.075088,0.31794 -5.603705,-2.96245 -6.647687,-0.39571 -0.80778,2.63831 -4.654637,3.56556 -6.427154,1.36056 -2.254298,-1.95681 -0.624131,-6.378732 2.444859,-6.121972 2.895844,0.16429 5.249051,2.528432 8.216212,2.274272 2.704931,0.81543 3.080687,-2.634262 2.466308,-4.471212 -0.305776,-2.63786 -2.628083,-4.94442 -1.653272,-7.707303 0.757844,-2.173103 3.712051,-2.953676 5.431204,-1.417027 1.844301,1.238926 2.635927,4.57589 0.37233,5.80637 -2.080944,0.53526 -3.266318,2.29695 -1.893011,4.17672 -0.107334,2.750502 1.723881,4.487262 4.39736,4.210092 3.308109,0.65781 6.750323,0.96791 9.899302,2.20742 1.430101,0.53608 2.560313,3.87398 0.02025,2.85406 -4.343232,-0.69813 -8.676748,-1.4548 -13.01661,-2.17328 0.480238,3.75803 0.797531,7.56982 1.922772,11.20678 -0.906791,0.91436 -2.924201,0.85333 -3.685842,-0.22033 z M 21.40164,103.27161 c 1.896854,-3.303682 -5.205242,-4.358602 -4.128521,-0.51581 0.508469,1.76181 3.279785,2.32065 4.128521,0.51581 z M 33.395885,91.382888 c 1.792061,-3.046635 -4.484145,-4.651192 -3.986306,-0.922202 0.0063,2.097712 3.143179,3.060822 3.986306,0.922202 z" />
    </g>
    <g
       id="g2069"
       transform="rotate(0.49499589,-7822.0552,538.52305)">
      <path
         id="path4868-2-7-1-1-6-2"
         style="fill:none;stroke:#000000;stroke-width:0.342902;stroke-linecap:butt;stroke-linejoin:round;stroke-miterlimit:4;stroke-dasharray:none;stroke-opacity:1"
         d="m 85.036668,88.864675 c 3.883981,6.168915 7.767967,12.337825 11.651943,18.506745 0.01752,-2.349 1.507326,-5.01338 0.515226,-7.14611 -3.263055,-5.019896 -6.526111,-10.039791 -9.789168,-15.059685 -0.792667,1.233017 -1.585334,2.466033 -2.378001,3.69905 z" />
      <path
         id="path4870-6-5-2-5-1-8"
         style="fill:none;stroke:#000000;stroke-width:0.342902;stroke-linecap:butt;stroke-linejoin:round;stroke-miterlimit:4;stroke-dasharray:none;stroke-opacity:1"
         d="m 84.667243,89.092485 c -1.867378,1.125377 -3.734756,2.250753 -5.602134,3.37613 1.337153,-1.903395 2.122989,-4.505593 4.518969,-5.354067 1.265267,-0.660501 2.530535,-1.321002 3.795802,-1.981503 -0.904212,1.319813 -1.808425,2.639627 -2.712637,3.95944 z" />
      <path
         id="path4876-7-9-9-5-8-9"
         style="fill:none;stroke:#000000;stroke-width:0.32406;stroke-linecap:butt;stroke-linejoin:round;stroke-miterlimit:4;stroke-dasharray:none;stroke-opacity:1"
         d="m 61.599323,93.082075 c 1.451275,-1.158143 2.90255,-2.316287 4.353825,-3.47443 5.4449,0.952607 10.8898,1.905213 16.3347,2.85782 -0.853119,1.24858 -1.706238,2.49716 -2.559357,3.74574 -6.043056,-1.043043 -12.086112,-2.086087 -18.129168,-3.12913 z" />
      <path
         id="path4878-9-2-3-4-7-7"
         style="fill:none;stroke:#000000;stroke-width:0.32406;stroke-linecap:butt;stroke-linejoin:round;stroke-miterlimit:4;stroke-dasharray:none;stroke-opacity:1"
         d="m 62.103739,99.745005 c -1.258072,0.626475 -2.105009,2.216175 -0.08339,1.998835 5.720198,1.19117 11.440396,2.38234 17.160592,3.57351 0.655656,-1.37354 1.311312,-2.74708 1.966968,-4.12062 -6.348056,-0.48391 -12.696111,-0.96782 -19.044167,-1.451725 z" />
      <path
         id="path4880-2-2-1-7-9-3"
         style="fill:#ececec;fill-opacity:1;stroke:#000000;stroke-width:0.32406;stroke-linecap:butt;stroke-linejoin:round;stroke-miterlimit:4;stroke-dasharray:none;stroke-opacity:1"
         d="m 60.308579,101.40128 c 0.103582,2.03831 0.207165,4.07663 0.310747,6.11494 6.108729,1.3116 12.21746,2.62319 18.326189,3.93479 -0.302104,-2.00285 0.948125,-5.23557 -0.364006,-6.4382 -6.090976,-1.20385 -12.181952,-2.40769 -18.27293,-3.61153 z" />
      <path
         id="path4882-0-8-9-6-2-6"
         style="fill:#c8c8c8;fill-opacity:1;stroke:#000000;stroke-width:0.32406;stroke-linecap:butt;stroke-linejoin:round;stroke-miterlimit:4;stroke-dasharray:none;stroke-opacity:1"
         d="m 82.338727,99.634145 c 0.124484,2.526935 0.942636,5.342785 -0.954218,7.465835 -0.695874,0.9788 -1.947071,3.86596 -2.280073,3.59781 0.325288,-2.4236 -0.527024,-5.21505 0.985896,-7.312 0.749462,-1.25055 1.498922,-2.5011 2.248395,-3.751645 z" />
      <path
         id="path4874-8-9-4-5-0-1"
         style="fill:#ececec;fill-opacity:1;stroke:#000000;stroke-width:0.32406;stroke-linecap:butt;stroke-linejoin:round;stroke-miterlimit:4;stroke-dasharray:none;stroke-opacity:1"
         d="m 61.609312,93.122565 c 6.022344,1.1005 12.044688,2.201 18.067032,3.3015 0.125879,2.201132 0.251759,4.402265 0.377638,6.603395 -5.964988,-1.09959 -11.929977,-2.19917 -17.894966,-3.298755 -0.183235,-2.202047 -0.366469,-4.404093 -0.549704,-6.60614 z" />
      <path
         id="path4926-7-7-6-2-2"
         style="fill:#c8c8c8;fill-opacity:1;stroke:#000000;stroke-width:0.32406;stroke-linecap:butt;stroke-linejoin:round;stroke-miterlimit:4;stroke-dasharray:none;stroke-opacity:1"
         d="m 80.696347,95.207475 c -1.91203,1.692618 -0.426068,4.372639 -0.773508,6.515715 -0.0023,2.67887 2.068331,-1.827562 2.788921,-2.530081 0.228989,-1.435108 -1.132533,-2.440346 -1.73139,-3.631626 -0.05032,-0.0256 -0.425831,-0.746127 -0.284023,-0.354008 z" />
      <path
         id="path4872-1-3-8-9-3-9"
         style="fill:#ececec;fill-opacity:1;stroke:#000000;stroke-width:0.342902;stroke-linecap:butt;stroke-linejoin:round;stroke-miterlimit:4;stroke-dasharray:none;stroke-opacity:1"
         d="m 79.102963,92.575795 c 3.906714,5.956835 7.813423,11.913675 11.720142,17.870505 1.581442,-1.28321 4.793689,-2.17577 5.399772,-3.69261 -3.761307,-5.94202 -7.522615,-11.884049 -11.283923,-17.826075 -1.94533,1.21606 -3.890661,2.43212 -5.835991,3.64818 z" />
      <path
         id="path4943-3-6-4-3-7-3"
         style="fill:#d6d6d6;fill-opacity:1;stroke:#000000;stroke-width:0.383247;stroke-miterlimit:4;stroke-dasharray:none;stroke-opacity:1"
         d="m 70.744249,92.502935 c -0.64158,-3.968032 -1.28274,-7.936379 -1.897912,-11.90854 -2.259089,-0.295049 -4.363812,-1.309228 -6.593954,-1.655629 -0.174902,2.225491 -2.271962,4.674441 -4.828304,3.786523 -2.715691,-0.556072 -4.285381,-4.332575 -2.07286,-6.337987 2.052773,-2.163053 4.918557,-0.619681 7.0819,0.418326 1.988098,0.915342 4.225987,0.980245 6.356135,0.641668 0.51991,-2.593951 0.297005,-5.314546 -0.916063,-7.695487 -1.069831,-1.835436 -1.507249,-4.455867 0.303827,-6.004264 2.056915,-2.038545 5.628498,-0.417955 6.181314,2.205593 0.769842,2.330813 -1.270712,4.866939 -3.709397,4.630508 -0.288803,2.056435 1.148537,4.289993 1.251381,6.46654 0.708498,1.346477 3.462326,0.706971 4.873189,1.372331 2.842387,0.636002 5.825533,0.818754 8.55074,1.865468 1.394777,0.285493 4.014899,4.261158 1.030333,3.234368 -4.601811,-0.755707 -9.198984,-1.53941 -13.798618,-2.308238 0.492533,3.792429 0.7938,7.646057 1.927021,11.317178 -0.03549,1.330148 -2.840029,0.5936 -3.677513,0.354106 l -0.06138,-0.382564 z M 60.263588,80.036265 c 1.33971,-2.086418 -1.754137,-4.088683 -3.473104,-2.725551 -1.912687,1.225316 -0.298633,4.21786 1.735178,3.855809 0.726579,-0.06814 1.360641,-0.513025 1.737926,-1.130258 z m 12.32451,-12.216079 c 1.164696,-2.014689 -1.792942,-4.593916 -3.445877,-2.71864 -1.641761,1.589647 0.214165,5.023332 2.447255,3.73789 0.410448,-0.234985 0.770592,-0.605261 0.998622,-1.01925 z" />
      <path
         id="path4943-3-6-4-3-7-2-1"
         style="fill:#ffffff;fill-opacity:1;stroke:#000000;stroke-width:0.372977;stroke-miterlimit:4;stroke-dasharray:none;stroke-opacity:1"
         d="m 70.900823,92.430395 c -0.624339,-3.86171 -1.248564,-7.723685 -1.847024,-11.58944 -2.198476,-0.287538 -4.246913,-1.274031 -6.417258,-1.61133 -0.170255,2.165796 -2.211073,4.549182 -4.698925,3.685062 -2.642903,-0.541197 -4.170545,-4.216489 -2.01731,-6.168165 1.997761,-2.105049 4.786772,-0.60331 6.892124,0.40701 1.935585,0.88905 4.112002,0.950482 6.185812,0.624514 0.556812,-2.632391 0.220392,-5.378462 -1.014441,-7.77788 -1.100535,-1.795745 -1.190406,-4.457476 0.693985,-5.776711 2.369788,-1.900904 5.931983,0.469359 5.873219,3.279031 0.454885,2.662593 -2.679658,3.230284 -3.920097,4.070165 0.458065,2.102596 1.204425,4.144483 1.46871,6.291055 4.134779,0.823411 8.323619,1.414445 12.418542,2.415692 1.260602,0.247394 3.867202,2.876651 2.510518,3.552499 -4.794696,-0.755807 -9.576031,-1.595151 -14.364783,-2.387952 0.480168,3.690634 0.770781,7.441473 1.875381,11.013927 0.551367,1.107114 -3.876015,0.948391 -3.638453,-0.02748 z M 60.701018,80.297785 c 1.303803,-2.030494 -1.707174,-3.979179 -3.380033,-2.652402 -1.97167,1.272297 -0.0948,4.354067 1.958739,3.704872 0.606685,-0.125713 1.093014,-0.53803 1.421294,-1.05247 z M 72.695263,68.409066 c 1.202675,-2.075885 -2.045082,-4.631482 -3.520362,-2.436321 -1.440443,1.747241 0.78794,4.845491 2.798492,3.272105 0.259952,-0.257388 0.567607,-0.492466 0.72187,-0.835784 z" />
    </g>
  </g>
</svg>
