<?xml version="1.0" encoding="UTF-8" standalone="no"?>
<svg
   xmlns:dc="http://purl.org/dc/elements/1.1/"
   xmlns:cc="http://creativecommons.org/ns#"
   xmlns:rdf="http://www.w3.org/1999/02/22-rdf-syntax-ns#"
   xmlns:svg="http://www.w3.org/2000/svg"
   xmlns="http://www.w3.org/2000/svg"
   xmlns:sodipodi="http://sodipodi.sourceforge.net/DTD/sodipodi-0.dtd"
   xmlns:inkscape="http://www.inkscape.org/namespaces/inkscape"
   width="45.559437mm"
   height="51.001617mm"
   viewBox="0 0 45.559437 51.001617"
   version="1.1"
   id="svg1176"
   inkscape:version="1.0.2 (394de47547, 2021-03-26)"
   sodipodi:docname="title.svg">
  <defs
     id="defs1170" />
  <sodipodi:namedview
     id="base"
     pagecolor="#ffffff"
     bordercolor="#666666"
     borderopacity="1.0"
     inkscape:pageopacity="0.0"
     inkscape:pageshadow="2"
     inkscape:zoom="1.979899"
     inkscape:cx="57.79346"
     inkscape:cy="104.75359"
     inkscape:document-units="mm"
     inkscape:current-layer="layer1"
     inkscape:document-rotation="0"
     showgrid="false"
     inkscape:window-width="1515"
     inkscape:window-height="1199"
     inkscape:window-x="2030"
     inkscape:window-y="65"
     inkscape:window-maximized="0" />
  <metadata
     id="metadata1173">
    <rdf:RDF>
      <cc:Work
         rdf:about="">
        <dc:format>image/svg+xml</dc:format>
        <dc:type
           rdf:resource="http://purl.org/dc/dcmitype/StillImage" />
        <dc:title></dc:title>
      </cc:Work>
    </rdf:RDF>
  </metadata>
  <g
     inkscape:label="Layer 1"
     inkscape:groupmode="layer"
     id="layer1"
     transform="translate(-56.595282,-129.46943)">
    <path
       style="fill:none;stroke:#000000;stroke-width:0.342902;stroke-linecap:butt;stroke-linejoin:round;stroke-miterlimit:4;stroke-dasharray:none;stroke-opacity:1"
       d="m 88.435267,156.71586 11.651943,18.50674 0.99666,-6.40547 -10.270602,-15.80032 z"
       id="path4868-2-7-1-1-6"
       sodipodi:nodetypes="ccccc" />
    <path
       style="fill:none;stroke:#000000;stroke-width:0.342902;stroke-linecap:butt;stroke-linejoin:round;stroke-miterlimit:4;stroke-dasharray:none;stroke-opacity:1"
       d="m 88.065842,156.94367 -5.602134,3.37613 2.724058,-4.41708 5.590713,-2.91849 z"
       id="path4870-6-5-2-5-1" />
    <path
       style="fill:none;stroke:#000000;stroke-width:0.32406;stroke-linecap:butt;stroke-linejoin:round;stroke-miterlimit:4;stroke-dasharray:none;stroke-opacity:1"
       d="m 64.997922,160.93326 4.353825,-3.47443 16.3347,2.85782 -2.559357,3.74574 z"
       id="path4876-7-9-9-5-8" />
    <path
       style="fill:none;stroke:#000000;stroke-width:0.32406;stroke-linecap:butt;stroke-linejoin:round;stroke-miterlimit:4;stroke-dasharray:none;stroke-opacity:1"
       d="m 65.502338,167.59619 -1.817905,1.63764 18.895104,3.9347 1.966968,-4.12062 z"
       id="path4878-9-2-3-4-7" />
    <path
       style="fill:#ececec;fill-opacity:1;stroke:#000000;stroke-width:0.32406;stroke-linecap:butt;stroke-linejoin:round;stroke-miterlimit:4;stroke-dasharray:none;stroke-opacity:1"
       d="m 63.707178,169.25246 0.310747,6.11494 18.326189,3.93479 0.225443,-6.3217 z"
       id="path4880-2-2-1-7-9"
       sodipodi:nodetypes="ccccc" />
    <path
       style="fill:#c8c8c8;fill-opacity:1;stroke:#000000;stroke-width:0.32406;stroke-linecap:butt;stroke-linejoin:round;stroke-miterlimit:4;stroke-dasharray:none;stroke-opacity:1"
       d="m 85.737326,167.48533 0.380105,5.14248 -3.632601,6.32517 0.187109,-6.35277 z"
       id="path4882-0-8-9-6-2"
       sodipodi:nodetypes="ccccc" />
    <path
       style="fill:#ececec;fill-opacity:1;stroke:#000000;stroke-width:0.32406;stroke-linecap:butt;stroke-linejoin:round;stroke-miterlimit:4;stroke-dasharray:none;stroke-opacity:1"
       d="m 65.007911,160.97375 18.067032,3.3015 0.377638,6.60339 -17.894966,-3.29875 z"
       id="path4874-8-9-4-5-0"
       sodipodi:nodetypes="ccccc" />
    <path
       style="fill:#c8c8c8;fill-opacity:1;stroke:#000000;stroke-width:0.32406;stroke-linecap:butt;stroke-linejoin:round;stroke-miterlimit:4;stroke-dasharray:none;stroke-opacity:1"
       d="m 84.094946,163.05866 -0.974013,1.06623 0.270885,6.91288 3.050057,-4.50477 -2.3812,-3.60178 z"
       id="path4926-7-7-6-2" />
    <path
       style="fill:#ececec;fill-opacity:1;stroke:#000000;stroke-width:0.342902;stroke-linecap:butt;stroke-linejoin:round;stroke-miterlimit:4;stroke-dasharray:none;stroke-opacity:1"
       d="m 82.501562,160.42698 11.720142,17.8705 5.622055,-3.34145 -11.506206,-18.17723 z"
       id="path4872-1-3-8-9-3"
       sodipodi:nodetypes="ccccc" />
    <path
       style="fill:#d6d6d6;fill-opacity:1;stroke:#000000;stroke-width:0.383247;stroke-miterlimit:4;stroke-dasharray:none;stroke-opacity:1"
       d="m 74.142848,160.35412 c -0.04092,-0.19666 -1.837922,-11.44915 -1.880722,-11.77674 l -0.01719,-0.1318 -0.418939,-0.0775 c -1.039751,-0.1923 -2.429034,-0.55718 -3.901931,-1.02481 -1.573232,-0.49947 -2.017366,-0.60759 -2.273084,-0.55332 -0.198203,0.0421 -0.241782,0.15436 -0.262711,0.67695 -0.02075,0.51876 -0.101306,0.82275 -0.341224,1.28795 -0.610092,1.18297 -1.521441,1.81115 -2.813357,1.93925 -0.95876,0.0952 -1.880262,-0.15661 -2.771027,-0.75678 -1.527146,-1.02897 -2.185293,-3.00034 -1.510106,-4.52323 0.536785,-1.2107 1.547403,-1.99142 2.908207,-2.24666 0.402006,-0.0754 1.043276,-0.0623 1.45603,0.0298 0.375303,0.0838 0.998506,0.332 2.026059,0.80706 2.24254,1.03675 3.323698,1.36642 4.825506,1.47136 0.697634,0.0487 1.148184,0.0248 2.729043,-0.14537 l 0.290451,-0.0318 0.125011,-0.9192 c 0.222543,-1.63624 0.216885,-2.50335 -0.02449,-3.74797 -0.17953,-0.92589 -0.442261,-1.6902 -1.142911,-3.32487 -0.739406,-1.72506 -0.852632,-2.122 -0.828782,-2.90549 0.01614,-0.53093 0.06695,-0.79074 0.254412,-1.30184 0.351396,-0.95799 1.000475,-1.6665 1.934166,-2.11123 0.436719,-0.20802 0.852277,-0.30994 1.300234,-0.3189 0.504147,-0.01 0.831645,0.0446 1.315352,0.2194 1.588254,0.57416 2.727429,2.15661 2.77265,3.8516 0.01806,0.67732 -0.180779,1.46983 -0.5087,2.02752 -0.213225,0.3626 -0.762133,0.89894 -1.131375,1.10548 -0.708833,0.39646 -1.06141,0.5059 -1.643388,0.51015 -0.242185,0.002 -0.49532,0.0247 -0.562498,0.0517 -0.302352,0.11999 -0.267197,0.43266 0.252049,2.24133 0.508104,1.76993 0.826103,3.11439 0.999332,4.22521 l 0.07569,0.48515 0.255642,0.0464 c 0.1406,0.0256 2.829311,0.52338 5.97492,1.10632 6.233808,1.15526 6.282737,1.16625 7.117677,1.59993 0.619082,0.32154 0.80745,0.46358 1.341075,1.01132 0.407375,0.41815 0.498259,0.52711 0.632779,0.75862 0.203736,0.35063 0.387963,0.80146 0.492881,1.20608 0.0802,0.30917 0.08001,0.32684 -0.0048,0.40771 -0.08818,0.0843 -0.109461,0.081 -7.62824,-1.1812 -4.146873,-0.69617 -7.567766,-1.27053 -7.60198,-1.2764 -0.04927,-0.009 0.162184,1.58009 1.016747,7.63848 0.407115,2.56596 1.456942,4.39905 0.666301,4.37842 -1.316111,-0.0344 -1.044496,0.0164 -3.247049,-0.12299 -0.211353,-0.0134 -0.203332,-0.37854 -0.247872,-0.60519 z M 63.662187,147.88745 c 0.24305,-0.41325 0.349004,-0.89788 0.29266,-1.33862 -0.05542,-0.43333 -0.215079,-0.7323 -0.598786,-1.12111 -0.215387,-0.21825 -0.303236,-0.28453 -0.533568,-0.40249 -0.703022,-0.36009 -1.632515,-0.36878 -2.364977,-0.0223 -0.357361,0.16912 -0.737313,0.5289 -0.895174,0.84762 -0.426662,0.86152 -0.287416,1.71973 0.391718,2.41406 0.245393,0.25088 0.591814,0.49025 0.884724,0.61132 0.674254,0.2787 1.505438,0.1823 2.14474,-0.24878 0.192603,-0.12984 0.547351,-0.51658 0.678663,-0.73985 z m 12.32451,-12.21608 c 0.410996,-0.84563 0.265122,-1.81765 -0.389,-2.59201 -0.571941,-0.67707 -1.407783,-0.93108 -2.199413,-0.66835 -0.413542,0.13726 -0.591891,0.24992 -0.857464,0.54172 -0.491997,0.54058 -0.708497,1.36118 -0.56732,2.15032 0.09921,0.55454 0.312706,0.9493 0.714029,1.32034 0.318844,0.29478 0.552173,0.4178 0.942422,0.4969 0.432214,0.0876 0.893214,0.01 1.358124,-0.22967 0.211256,-0.10875 0.286417,-0.16899 0.561922,-0.45033 0.270194,-0.27591 0.335903,-0.36152 0.4367,-0.56888 z"
       id="path4943-3-6-4-3-7"
       sodipodi:nodetypes="cccsscsscssscssccsssssssssssccssccsssssssccssccssssssssccsssssssssss" />
    <path
       style="fill:#ffffff;fill-opacity:1;stroke:#000000;stroke-width:0.372977;stroke-miterlimit:4;stroke-dasharray:none;stroke-opacity:1"
       d="m 74.299422,160.28158 c -0.03977,-0.19141 -1.788657,-11.14235 -1.830314,-11.46117 l -0.01671,-0.12827 -0.407721,-0.0755 c -1.011886,-0.18715 -2.36393,-0.54226 -3.797369,-0.99735 -1.531065,-0.48609 -1.963298,-0.5913 -2.212168,-0.53848 -0.192901,0.0409 -0.235308,0.15021 -0.255671,0.6588 -0.02027,0.50485 -0.0986,0.80069 -0.332089,1.25342 -0.593735,1.15127 -1.480658,1.76262 -2.737966,1.8873 -0.933066,0.0927 -1.829873,-0.15242 -2.696778,-0.7365 -1.4862,-1.00141 -2.126721,-2.91995 -1.469631,-4.40202 0.522406,-1.17826 1.505938,-1.93806 2.830281,-2.18646 0.391228,-0.0734 1.015325,-0.0607 1.417013,0.0289 0.365237,0.0814 0.971747,0.32309 1.971761,0.78543 2.18245,1.00897 3.23463,1.3298 4.696202,1.43193 0.678942,0.0474 1.117409,0.0241 2.655908,-0.14148 l 0.282671,-0.0309 0.121659,-0.89457 c 0.216578,-1.59238 0.211074,-2.43626 -0.02382,-3.64752 -0.174719,-0.90108 -0.430408,-1.64492 -1.11228,-3.23579 -0.719591,-1.67882 -0.829782,-2.06513 -0.806576,-2.82763 0.01566,-0.51671 0.06522,-0.76955 0.247603,-1.26696 0.341973,-0.93231 0.973657,-1.62183 1.882326,-2.05465 0.42501,-0.20244 0.829436,-0.30163 1.265406,-0.31034 0.490632,-0.01 0.809342,0.0433 1.280101,0.21351 1.545684,0.55877 2.654333,2.09883 2.698344,3.74839 0.01748,0.65917 -0.175938,1.43045 -0.49507,1.97318 -0.20752,0.35289 -0.741712,0.87485 -1.101061,1.07586 -0.689834,0.38584 -1.03296,0.49235 -1.599348,0.49648 -0.235692,0.002 -0.482046,0.0241 -0.547428,0.0503 -0.294245,0.11677 -0.260031,0.42106 0.245307,2.18127 0.494484,1.72251 0.803953,3.03093 0.972543,4.11198 l 0.07367,0.47215 0.248774,0.0452 c 0.136845,0.0249 2.753507,0.50936 5.814821,1.07668 6.066765,1.1243 6.114387,1.135 6.926937,1.55705 0.602495,0.31293 0.785819,0.45116 1.305142,0.98423 0.396454,0.40694 0.484908,0.51298 0.615827,0.73829 0.198279,0.34123 0.37756,0.77998 0.479672,1.17376 0.078,0.30088 0.0778,0.31808 -0.0048,0.39679 -0.08587,0.082 -0.106522,0.0788 -7.423823,-1.14955 -4.03575,-0.67752 -7.364972,-1.23649 -7.398273,-1.24221 -0.04793,-0.009 0.157832,1.53775 0.989506,7.4338 0.396204,2.49721 1.417888,4.28118 0.648446,4.26109 -1.280851,-0.0335 -1.016506,0.016 -3.160036,-0.11969 -0.205686,-0.0131 -0.197886,-0.36841 -0.241225,-0.58898 z M 64.099617,148.14897 c 0.236537,-0.40218 0.339658,-0.87382 0.284812,-1.30274 -0.05398,-0.42173 -0.209306,-0.71268 -0.582736,-1.09107 -0.209614,-0.21241 -0.29511,-0.27691 -0.519275,-0.3917 -0.684177,-0.35045 -1.588764,-0.35891 -2.301593,-0.0216 -0.347784,0.16459 -0.717564,0.51471 -0.87119,0.8249 -0.415222,0.83844 -0.279712,1.67365 0.38122,2.34939 0.238823,0.24414 0.575965,0.4771 0.861018,0.59492 0.656197,0.27123 1.465097,0.17741 2.087272,-0.24211 0.187445,-0.12637 0.532675,-0.50275 0.660472,-0.72003 z m 11.994245,-11.88872 c 0.399988,-0.82297 0.258024,-1.76896 -0.378569,-2.52256 -0.55662,-0.65892 -1.370064,-0.90612 -2.140466,-0.65044 -0.402476,0.13358 -0.576042,0.24323 -0.834498,0.52721 -0.478808,0.5261 -0.689498,1.32471 -0.552115,2.09269 0.09654,0.53968 0.304321,0.92387 0.694896,1.28495 0.310295,0.28689 0.537381,0.40662 0.91717,0.48359 0.42063,0.0853 0.869278,0.01 1.32173,-0.22352 0.205589,-0.10583 0.278742,-0.16445 0.546861,-0.43825 0.262951,-0.26851 0.326903,-0.35182 0.424991,-0.55363 z"
       id="path4943-3-6-4-3-7-2"
       sodipodi:nodetypes="cccsscsscssscssccsssssssssssccssccsssssssccssccssssssssccsssssssssss" />
  </g>
</svg>
